<svg width="20" height="20" viewBox="0 0 20 20" fill="none" xmlns="http://www.w3.org/2000/svg">
<path d="M14.0007 4.94048C14.0007 4.38819 14.4484 3.94048 15.0007 3.94048C15.553 3.94048 16.0007 4.38819 16.0007 4.94048C16.0007 5.49276 15.553 5.94048 15.0007 5.94048C14.4484 5.94048 14.0007 5.49276 14.0007 4.94048Z" fill="black"/>
<path fill-rule="evenodd" clip-rule="evenodd" d="M10.0007 5.19048C7.37732 5.19048 5.25067 7.31712 5.25067 9.94048C5.25067 12.5638 7.37732 14.6905 10.0007 14.6905C12.624 14.6905 14.7507 12.5638 14.7507 9.94048C14.7507 7.31712 12.624 5.19048 10.0007 5.19048ZM6.75067 9.94048C6.75067 8.14555 8.20575 6.69048 10.0007 6.69048C11.7956 6.69048 13.2507 8.14555 13.2507 9.94048C13.2507 11.7354 11.7956 13.1905 10.0007 13.1905C8.20575 13.1905 6.75067 11.7354 6.75067 9.94048Z" fill="black"/>
<path fill-rule="evenodd" clip-rule="evenodd" d="M15.2589 0.773491C11.7924 0.38605 8.20902 0.38605 4.74244 0.773491C2.73038 0.998368 1.10605 2.58338 0.869497 4.60591C0.454959 8.15021 0.454959 11.7307 0.869497 15.275C1.10605 17.2976 2.73038 18.8826 4.74244 19.1075C8.20902 19.4949 11.7924 19.4949 15.2589 19.1075C17.271 18.8826 18.8953 17.2976 19.1319 15.275C19.5464 11.7307 19.5464 8.15021 19.1319 4.60591C18.8953 2.58338 17.271 0.998368 15.2589 0.773491ZM4.90905 2.26421C8.2649 1.88914 11.7365 1.88914 15.0923 2.26421C16.4224 2.41287 17.4879 3.46248 17.642 4.78016C18.043 8.20868 18.043 11.6723 17.642 15.1008C17.4879 16.4185 16.4224 17.4681 15.0923 17.6167C11.7365 17.9918 8.2649 17.9918 4.90905 17.6167C3.57894 17.4681 2.51346 16.4185 2.35934 15.1008C1.95834 11.6723 1.95834 8.20868 2.35934 4.78016C2.51346 3.46248 3.57894 2.41287 4.90905 2.26421Z" fill="black"/>
</svg>
