<svg width="21" height="18" viewBox="0 0 21 18" fill="none" xmlns="http://www.w3.org/2000/svg">
<path fill-rule="evenodd" clip-rule="evenodd" d="M4.7868 10.9605C4.83058 10.9753 4.87476 10.9857 4.9189 10.9922C4.96703 11.1053 5.02923 11.2516 5.10179 11.4227C5.27886 11.8404 5.51745 12.4052 5.76373 12.9944C6.26597 14.1961 6.77259 15.4349 6.88447 15.7894C7.02298 16.2277 7.16939 16.5258 7.32923 16.7292C7.41187 16.8344 7.50745 16.9263 7.6193 16.9958C7.6756 17.0308 7.73507 17.0596 7.79715 17.0809C7.79988 17.0819 7.80262 17.0828 7.80535 17.0837C8.12536 17.2045 8.41712 17.1542 8.59979 17.0927C8.69754 17.0598 8.77662 17.02 8.83267 16.9878C8.86124 16.9713 8.88539 16.956 8.90465 16.9431L8.90919 16.94L11.7354 15.1775L14.9999 17.6803C15.0481 17.7173 15.1006 17.7482 15.1563 17.7725C15.5485 17.9437 15.9282 18.0033 16.2855 17.9545C16.6421 17.9058 16.9253 17.756 17.1361 17.5874C17.3425 17.4222 17.4824 17.2373 17.5696 17.0998C17.6141 17.0296 17.6475 16.9676 17.671 16.92C17.6829 16.8961 17.6924 16.8755 17.6998 16.859L17.7092 16.8372L17.7127 16.8286L17.7142 16.825L17.7149 16.8233L17.7155 16.8217C17.7327 16.7788 17.7458 16.7345 17.7548 16.6892L20.7351 1.66366C20.7446 1.6156 20.7494 1.56673 20.7494 1.51774C20.7494 1.07773 20.5836 0.659327 20.1938 0.405433C19.8606 0.188436 19.4894 0.179095 19.2548 0.1969C19.0018 0.216107 18.7681 0.278574 18.6112 0.32849C18.5296 0.354468 18.4612 0.379532 18.4119 0.398653C18.3871 0.408263 18.3668 0.416508 18.3516 0.422796L18.3402 0.427583L1.62652 6.98413L1.62436 6.9849C1.6137 6.98878 1.60003 6.99388 1.58378 7.00021C1.55141 7.01281 1.50805 7.03057 1.4574 7.05352C1.35861 7.09829 1.22003 7.16826 1.07783 7.26565C0.850639 7.42122 0.328148 7.84733 0.416129 8.55063C0.486318 9.1117 0.870699 9.45629 1.10489 9.62199C1.23348 9.71298 1.35565 9.77805 1.44462 9.8204C1.48589 9.84005 1.57159 9.87487 1.60877 9.88997L1.61815 9.89379L4.7868 10.9605ZM18.9252 1.80878L18.9228 1.8098C18.9145 1.81341 18.9061 1.81688 18.8977 1.82019L2.16367 8.3847C2.15493 8.38813 2.14613 8.39139 2.13727 8.39449L2.12795 8.39802C2.11725 8.40219 2.09923 8.4095 2.0766 8.41975C2.06378 8.42557 2.05039 8.43191 2.03674 8.43872C2.05549 8.44928 2.07344 8.45846 2.08939 8.46605C2.1047 8.47334 2.11637 8.47832 2.12277 8.48095L5.2654 9.53893C5.32292 9.5583 5.37654 9.58396 5.42576 9.61489L15.8025 3.5404L15.8122 3.53465C15.8198 3.53019 15.8297 3.52445 15.8416 3.51772C15.8652 3.50437 15.8977 3.48659 15.9363 3.46695C16.0083 3.4303 16.1235 3.37589 16.2533 3.33577C16.3437 3.30784 16.6102 3.22915 16.8983 3.32155C17.0761 3.37859 17.2602 3.50119 17.3799 3.7089C17.4394 3.81209 17.4711 3.91575 17.4865 4.01064C17.5272 4.16012 17.5208 4.30772 17.4889 4.43516C17.4201 4.70967 17.2272 4.92379 17.0517 5.08757C16.9014 5.22798 14.956 7.10383 13.0369 8.9556C12.0798 9.87905 11.1325 10.7934 10.4245 11.4769L9.95943 11.9258L15.8314 16.4276C15.966 16.4759 16.0456 16.4734 16.0825 16.4683C16.1264 16.4624 16.1623 16.4455 16.199 16.4161C16.24 16.3833 16.2759 16.339 16.3027 16.2967L16.3038 16.2949L19.1943 1.72194C19.1514 1.73225 19.108 1.74452 19.0662 1.75783C19.0189 1.7729 18.9798 1.78726 18.9539 1.79729C18.9411 1.80226 18.9319 1.80602 18.9269 1.8081L18.9252 1.80878ZM10.4639 14.2027L9.29241 13.3045L9.00855 15.1103L10.4639 14.2027ZM8.21773 11.5223L9.3827 10.3977C10.0908 9.71413 11.0382 8.79971 11.9953 7.87616L12.9678 6.93792L6.44779 10.7547L6.48278 10.8372C6.66048 11.2563 6.90013 11.8236 7.14772 12.416C7.33284 12.859 7.52643 13.3254 7.70276 13.7572L7.98579 11.9568C8.01308 11.7832 8.09788 11.6329 8.21773 11.5223Z" fill="black"/>
</svg>
