<svg width="20" height="22" viewBox="0 0 20 22" fill="none" xmlns="http://www.w3.org/2000/svg">
<path d="M5.96472 5.14233C5.77897 5.11519 5.58952 5.15248 5.42791 5.24799H5.41413C5.03892 5.46792 4.70092 5.7459 4.41269 6.07158C4.17316 6.34852 4.04322 6.62874 4.0091 6.89846C3.98875 7.05924 4.00253 7.22002 4.05044 7.37358L4.0675 7.38408C4.33722 8.17683 4.68963 8.93939 5.12013 9.65733C5.67467 10.666 6.35713 11.5988 7.15057 12.4326L7.17419 12.4667L7.2116 12.4943L7.23522 12.5219L7.26278 12.5455C8.09965 13.3413 9.03472 14.0269 10.0453 14.5858C11.2003 15.2145 11.9012 15.5117 12.3218 15.6351V15.6417C12.4452 15.6791 12.5574 15.6961 12.6703 15.6961C13.0288 15.6699 13.3682 15.5243 13.6343 15.2827C13.9585 14.9944 14.2334 14.655 14.4481 14.278V14.2714C14.6495 13.8921 14.5813 13.5331 14.2906 13.2903C13.7083 12.7814 13.0788 12.3294 12.4104 11.9404C11.9628 11.6976 11.5081 11.8446 11.3237 12.0907L10.9306 12.5862C10.7291 12.8323 10.3629 12.7981 10.3629 12.7981L10.3524 12.8047C7.62175 12.1071 6.89332 9.34233 6.89332 9.34233C6.89332 9.34233 6.85919 8.9663 7.11185 8.77468L7.60403 8.3783C7.83963 8.18668 8.00369 7.73255 7.75103 7.28433C7.36477 6.61506 6.91373 5.98532 6.40441 5.40418C6.29306 5.26717 6.13685 5.17396 5.96341 5.14102L5.96472 5.14233Z" fill="black"/>
<path d="M10.5792 3.94052C10.3031 3.94052 10.0792 4.16438 10.0792 4.44052C10.0792 4.71666 10.3031 4.94052 10.5792 4.94052C11.8437 4.94052 12.8944 5.35384 13.7245 6.14527C14.1518 6.57867 14.4844 7.09167 14.7028 7.65306C14.922 8.21656 15.0217 8.81743 14.9961 9.41928C14.9844 9.69517 15.1985 9.92834 15.4744 9.94007C15.7503 9.9518 15.9835 9.73766 15.9952 9.46176C16.0267 8.72132 15.9039 7.98257 15.6347 7.29052C15.3655 6.5985 14.9558 5.96789 14.4307 5.437L14.4207 5.42739C13.3907 4.44236 12.0851 3.94052 10.5792 3.94052Z" fill="black"/>
<path d="M10.5452 5.58485C10.2691 5.58485 10.0452 5.80871 10.0452 6.08485C10.0452 6.36099 10.2691 6.58485 10.5452 6.58485H10.5615C11.474 6.64915 12.1379 6.95329 12.6034 7.45253C13.0799 7.96669 13.3267 8.60532 13.3084 9.39549C13.302 9.67156 13.5207 9.90054 13.7967 9.90693C14.0728 9.91332 14.3018 9.6947 14.3082 9.41863C14.3322 8.38114 13.9985 7.4865 13.3363 6.77217L13.3354 6.77123C12.6588 6.04515 11.7305 5.66104 10.6122 5.58597L10.5955 5.58485H10.5452Z" fill="black"/>
<path d="M10.5263 7.2592C10.2505 7.24468 10.0152 7.45647 10.0007 7.73223C9.98619 8.00799 10.198 8.2433 10.4737 8.25782C10.8924 8.27986 11.1592 8.40542 11.327 8.57486C11.4956 8.74503 11.6216 9.0175 11.6446 9.44474C11.6595 9.72048 11.895 9.932 12.1708 9.91717C12.4465 9.90234 12.658 9.66678 12.6432 9.39104C12.6109 8.79101 12.4231 8.26054 12.0376 7.87121C11.6513 7.48114 11.1238 7.29065 10.5263 7.2592Z" fill="black"/>
<path fill-rule="evenodd" clip-rule="evenodd" d="M5.06673 1.324C8.24883 0.612704 11.5487 0.612704 14.7308 1.324L15.0699 1.39978C16.9667 1.82377 18.4637 3.27859 18.9418 5.16247C19.7495 8.34531 19.7495 11.6795 18.9418 14.8623C18.4637 16.7462 16.9666 18.201 15.0699 18.625L14.7308 18.7008C12.732 19.1476 10.6867 19.3137 8.6533 19.1992L6.0001 21.5732C5.79637 21.7555 5.50959 21.8124 5.25164 21.7219C4.99369 21.6314 4.80543 21.4077 4.76029 21.1381L4.32148 18.5167C2.61909 17.9877 1.29919 16.6096 0.855788 14.8623C0.0480704 11.6795 0.0480706 8.34531 0.855788 5.16247C1.33386 3.27859 2.83092 1.82377 4.7277 1.39978L5.06673 1.324ZM14.4036 2.78787C11.437 2.12475 8.36057 2.12475 5.39395 2.78787L5.05492 2.86365C3.71009 3.16426 2.64866 4.19575 2.3097 5.53143C1.56343 8.47214 1.56343 11.5527 2.3097 14.4934C2.64866 15.8291 3.71008 16.8605 5.05492 17.1611L5.14448 17.1812C5.44237 17.2478 5.67018 17.4882 5.72058 17.7893L6.01485 19.5472L7.88722 17.8719C8.0384 17.7366 8.23793 17.6684 8.44029 17.6827C10.4338 17.8238 12.4427 17.6753 14.4036 17.2369L14.7426 17.1611C16.0875 16.8605 17.1489 15.8291 17.4879 14.4934C18.2341 11.5527 18.2341 8.47214 17.4879 5.53143C17.1489 4.19575 16.0875 3.16426 14.7426 2.86366L14.4036 2.78787Z" fill="black"/>
</svg>
